<svg width="1920" height="1080" viewBox="0 0 1920 1080" fill="none" xmlns="http://www.w3.org/2000/svg">
<g clip-path="url(#clip0_13_2)">
<rect width="1920" height="1080" fill="#0E5F13"/>
<g clip-path="url(#clip1_13_2)">
<path d="M235.57 307H186.138L261.457 88.8182H320.903L396.116 307H346.685L292.033 138.676H290.328L235.57 307ZM232.48 221.24H349.241V257.249H232.48V221.24ZM422.377 307V88.8182H509.735C525.786 88.8182 539.174 91.1974 549.898 95.956C560.623 100.714 568.684 107.32 574.082 115.771C579.479 124.152 582.178 133.811 582.178 144.749C582.178 153.271 580.474 160.764 577.065 167.227C573.656 173.619 568.968 178.875 563.002 182.994C557.107 187.043 550.36 189.919 542.761 191.624V193.754C551.07 194.109 558.847 196.453 566.092 200.786C573.407 205.118 579.337 211.19 583.883 219.003C588.428 226.744 590.701 235.977 590.701 246.702C590.701 258.278 587.825 268.612 582.072 277.703C576.39 286.723 567.974 293.861 556.823 299.116C545.673 304.372 531.93 307 515.594 307H422.377ZM468.506 269.287H506.113C518.968 269.287 528.343 266.837 534.238 261.936C540.133 256.964 543.08 250.359 543.08 242.121C543.08 236.084 541.624 230.757 538.712 226.141C535.8 221.524 531.646 217.902 526.248 215.274C520.921 212.646 514.565 211.332 507.178 211.332H468.506V269.287ZM468.506 180.118H502.704C509.025 180.118 514.636 179.017 519.536 176.815C524.508 174.543 528.414 171.347 531.255 167.227C534.167 163.108 535.623 158.172 535.623 152.419C535.623 144.536 532.817 138.179 527.207 133.349C521.667 128.52 513.783 126.105 503.556 126.105H468.506V180.118ZM821.214 197.909C821.214 221.702 816.704 241.943 807.684 258.634C798.735 275.324 786.52 288.072 771.037 296.879C755.625 305.615 738.295 309.983 719.048 309.983C699.659 309.983 682.258 305.58 666.846 296.773C651.434 287.966 639.254 275.217 630.305 258.527C621.356 241.837 616.882 221.631 616.882 197.909C616.882 174.116 621.356 153.875 630.305 137.185C639.254 120.494 651.434 107.781 666.846 99.0455C682.258 90.2386 699.659 85.8352 719.048 85.8352C738.295 85.8352 755.625 90.2386 771.037 99.0455C786.52 107.781 798.735 120.494 807.684 137.185C816.704 153.875 821.214 174.116 821.214 197.909ZM774.446 197.909C774.446 182.497 772.137 169.5 767.521 158.918C762.975 148.335 756.548 140.31 748.238 134.841C739.929 129.372 730.199 126.638 719.048 126.638C707.897 126.638 698.167 129.372 689.858 134.841C681.548 140.31 675.085 148.335 670.468 158.918C665.923 169.5 663.65 182.497 663.65 197.909C663.65 213.321 665.923 226.318 670.468 236.901C675.085 247.483 681.548 255.509 689.858 260.977C698.167 266.446 707.897 269.18 719.048 269.18C730.199 269.18 739.929 266.446 748.238 260.977C756.548 255.509 762.975 247.483 767.521 236.901C772.137 226.318 774.446 213.321 774.446 197.909ZM990.151 88.8182H1036.28V230.509C1036.28 246.418 1032.48 260.338 1024.88 272.27C1017.35 284.202 1006.81 293.506 993.24 300.182C979.675 306.787 963.872 310.089 945.832 310.089C927.722 310.089 911.884 306.787 898.318 300.182C884.753 293.506 874.206 284.202 866.678 272.27C859.149 260.338 855.385 246.418 855.385 230.509V88.8182H901.514V226.567C901.514 234.876 903.325 242.263 906.947 248.726C910.641 255.189 915.825 260.267 922.501 263.96C929.178 267.653 936.955 269.5 945.832 269.5C954.781 269.5 962.558 267.653 969.163 263.96C975.839 260.267 980.989 255.189 984.611 248.726C988.304 242.263 990.151 234.876 990.151 226.567V88.8182ZM1065.92 126.851V88.8182H1245.11V126.851H1178.32V307H1132.72V126.851H1065.92ZM1478.82 88.8182H1524.95V230.509C1524.95 246.418 1521.15 260.338 1513.55 272.27C1506.02 284.202 1495.48 293.506 1481.91 300.182C1468.35 306.787 1452.54 310.089 1434.5 310.089C1416.39 310.089 1400.56 306.787 1386.99 300.182C1373.42 293.506 1362.88 284.202 1355.35 272.27C1347.82 260.338 1344.06 246.418 1344.06 230.509V88.8182H1390.19V226.567C1390.19 234.876 1392 242.263 1395.62 248.726C1399.31 255.189 1404.5 260.267 1411.17 263.96C1417.85 267.653 1425.63 269.5 1434.5 269.5C1443.45 269.5 1451.23 267.653 1457.84 263.96C1464.51 260.267 1469.66 255.189 1473.28 248.726C1476.98 242.263 1478.82 234.876 1478.82 226.567V88.8182ZM1681.26 151.567C1680.41 142.973 1676.75 136.297 1670.29 131.538C1663.83 126.78 1655.06 124.401 1643.98 124.401C1636.45 124.401 1630.09 125.466 1624.91 127.597C1619.72 129.656 1615.75 132.533 1612.98 136.226C1610.28 139.919 1608.93 144.109 1608.93 148.797C1608.79 152.703 1609.6 156.112 1611.38 159.024C1613.22 161.936 1615.75 164.457 1618.94 166.588C1622.14 168.648 1625.83 170.459 1630.02 172.021C1634.21 173.513 1638.69 174.791 1643.44 175.857L1663.05 180.544C1672.56 182.675 1681.3 185.516 1689.25 189.067C1697.21 192.618 1704.1 196.986 1709.92 202.17C1715.75 207.355 1720.26 213.463 1723.45 220.494C1726.72 227.526 1728.39 235.587 1728.46 244.678C1728.39 258.03 1724.98 269.607 1718.23 279.408C1711.56 289.138 1701.9 296.702 1689.25 302.099C1676.68 307.426 1661.52 310.089 1643.76 310.089C1626.15 310.089 1610.81 307.391 1597.74 301.993C1584.74 296.595 1574.59 288.605 1567.27 278.023C1560.03 267.369 1556.23 254.195 1555.87 238.499H1600.51C1601.01 245.814 1603.1 251.922 1606.8 256.822C1610.56 261.652 1615.57 265.31 1621.82 267.795C1628.14 270.21 1635.28 271.418 1643.23 271.418C1651.04 271.418 1657.83 270.281 1663.58 268.009C1669.4 265.736 1673.91 262.575 1677.11 258.527C1680.31 254.479 1681.9 249.827 1681.9 244.571C1681.9 239.67 1680.45 235.551 1677.54 232.213C1674.69 228.875 1670.5 226.034 1664.96 223.69C1659.5 221.347 1652.78 219.216 1644.83 217.298L1621.07 211.332C1602.68 206.858 1588.15 199.862 1577.5 190.345C1566.85 180.828 1561.56 168.009 1561.63 151.886C1561.56 138.676 1565.07 127.135 1572.17 117.263C1579.35 107.391 1589.18 99.6847 1601.68 94.1449C1614.18 88.6051 1628.39 85.8352 1644.3 85.8352C1660.49 85.8352 1674.62 88.6051 1686.7 94.1449C1698.84 99.6847 1708.29 107.391 1715.04 117.263C1721.78 127.135 1725.26 138.57 1725.48 151.567H1681.26Z" fill="#ECBD27"/>
<path d="M449.365 1077.34C454.551 1071 459.626 1064.56 464.92 1058.34C483.041 1036.94 501.161 1015.55 519.499 994.318C537.565 973.471 555.958 952.894 574.024 932.097C586.795 917.418 599.293 902.518 611.956 887.781C633.624 862.565 655.237 837.291 677.014 812.132C700.865 784.627 724.937 757.336 748.733 729.775C773.729 700.793 798.342 671.593 823.288 642.611C856.797 603.643 890.419 564.837 923.984 525.976C930.208 518.772 935.992 511.24 942.65 504.472C944.994 502.071 949.307 500.597 952.803 500.488C965.465 499.997 978.183 500.27 990.845 500.27C1169.64 500.27 1348.5 500.27 1527.3 500.27C1532.05 500.27 1536.85 500.161 1541.59 500.488C1544.17 500.652 1546.73 501.58 1549.24 502.18C1548.2 504.527 1547.55 507.147 1546.07 509.166C1541.38 515.552 1536.36 521.665 1531.5 527.942C1478.29 595.838 1425.08 663.679 1371.86 731.572C1342.83 768.633 1313.79 805.637 1284.7 842.642C1252.38 883.739 1219.91 924.729 1187.65 965.882C1162.11 998.467 1135.91 1030.67 1111.79 1064.29C1102.78 1076.84 1093.35 1079.74 1079.1 1079.68C876.23 1079.3 673.412 1079.4 470.542 1079.35C464.047 1079.35 457.552 1079.35 451.003 1079.35C450.403 1078.7 449.856 1078.1 449.256 1077.44L449.365 1077.34Z" fill="#ECBD27"/>
<path d="M1636.01 395.806C1434.24 395.588 1232.51 395.588 1030.73 395.588C1027.46 395.588 1024.13 395.315 1019.38 395.096C1021.07 391.985 1021.84 389.802 1023.15 387.892C1043.23 359.456 1063.27 330.966 1083.46 302.639C1104.41 273.113 1125.54 243.749 1146.55 214.331C1167.95 184.313 1189.23 154.24 1210.52 124.112C1228.91 98.0782 1247.14 71.9344 1265.53 45.9006C1274.97 32.4742 1284.42 18.9386 1294.41 5.83966C1296.43 3.1653 1300.57 1.30962 1304.01 0.763828C1309.09 -0.109433 1314.38 0.490935 1319.62 0.490935C1527.13 0.490935 1734.75 0.545514 1942.31 0.545514L1636.01 395.861V395.806Z" fill="#ECBD27"/>
<path d="M-24 1.25515C-20.4524 0.92768 -18.4875 0.600207 -16.5773 0.600207C85.5944 0.381892 187.766 0.163576 289.938 -0.000160989C395.275 -0.109319 500.612 -0.000160989 605.95 -0.000160989C623.142 -0.000160989 640.334 -0.109319 657.527 0.654786C661.129 0.818521 665.768 3.60204 667.897 6.60388C706.975 62.6564 745.834 118.927 784.586 175.198C801.291 199.431 817.604 223.882 834.252 248.116C853.194 275.732 872.407 303.131 891.399 330.693C904.878 350.233 918.25 369.772 931.622 389.365C932.496 390.621 933.093 392.095 934.408 394.551C930.642 394.878 927.636 395.369 924.688 395.369C766.688 395.369 608.733 395.369 450.728 395.369C379.556 395.369 308.386 395.315 237.214 395.533C229.683 395.533 224.88 393.568 220.678 386.746C198.737 351.16 176.195 315.903 153.764 280.59C139.191 257.721 124.236 235.071 109.663 212.203C96.5649 191.627 83.8479 170.832 70.8034 150.201C55.6855 126.295 40.5122 102.499 25.2302 78.7028C15.5697 63.6934 5.63634 48.9025 -3.96955 33.8933C-10.5736 23.5779 -16.741 13.0988 -24 1.25515Z" fill="#ECBD27"/>
<g clip-path="url(#clip2_13_2)">
<path d="M235.57 307H186.138L261.457 88.8182H320.903L396.116 307H346.685L292.033 138.676H290.328L235.57 307ZM232.48 221.24H349.241V257.249H232.48V221.24ZM422.377 307V88.8182H509.735C525.786 88.8182 539.174 91.1974 549.898 95.956C560.623 100.714 568.684 107.32 574.082 115.771C579.479 124.152 582.178 133.811 582.178 144.749C582.178 153.271 580.474 160.764 577.065 167.227C573.656 173.619 568.968 178.875 563.002 182.994C557.107 187.043 550.36 189.919 542.761 191.624V193.754C551.07 194.109 558.847 196.453 566.092 200.786C573.407 205.118 579.337 211.19 583.883 219.003C588.428 226.744 590.701 235.977 590.701 246.702C590.701 258.278 587.825 268.612 582.072 277.703C576.39 286.723 567.974 293.861 556.823 299.116C545.673 304.372 531.93 307 515.594 307H422.377ZM468.506 269.287H506.113C518.968 269.287 528.343 266.837 534.238 261.936C540.133 256.964 543.08 250.359 543.08 242.121C543.08 236.084 541.624 230.757 538.712 226.141C535.8 221.524 531.646 217.902 526.248 215.274C520.921 212.646 514.565 211.332 507.178 211.332H468.506V269.287ZM468.506 180.118H502.704C509.025 180.118 514.636 179.017 519.536 176.815C524.508 174.543 528.414 171.347 531.255 167.227C534.167 163.108 535.623 158.172 535.623 152.419C535.623 144.536 532.817 138.179 527.207 133.349C521.667 128.52 513.783 126.105 503.556 126.105H468.506V180.118ZM821.214 197.909C821.214 221.702 816.704 241.943 807.684 258.634C798.735 275.324 786.52 288.072 771.037 296.879C755.625 305.615 738.295 309.983 719.048 309.983C699.659 309.983 682.258 305.58 666.846 296.773C651.434 287.966 639.254 275.217 630.305 258.527C621.356 241.837 616.882 221.631 616.882 197.909C616.882 174.116 621.356 153.875 630.305 137.185C639.254 120.494 651.434 107.781 666.846 99.0455C682.258 90.2386 699.659 85.8352 719.048 85.8352C738.295 85.8352 755.625 90.2386 771.037 99.0455C786.52 107.781 798.735 120.494 807.684 137.185C816.704 153.875 821.214 174.116 821.214 197.909ZM774.446 197.909C774.446 182.497 772.137 169.5 767.521 158.918C762.975 148.335 756.548 140.31 748.238 134.841C739.929 129.372 730.199 126.638 719.048 126.638C707.897 126.638 698.167 129.372 689.858 134.841C681.548 140.31 675.085 148.335 670.468 158.918C665.923 169.5 663.65 182.497 663.65 197.909C663.65 213.321 665.923 226.318 670.468 236.901C675.085 247.483 681.548 255.509 689.858 260.977C698.167 266.446 707.897 269.18 719.048 269.18C730.199 269.18 739.929 266.446 748.238 260.977C756.548 255.509 762.975 247.483 767.521 236.901C772.137 226.318 774.446 213.321 774.446 197.909ZM990.151 88.8182H1036.28V230.509C1036.28 246.418 1032.48 260.338 1024.88 272.27C1017.35 284.202 1006.81 293.506 993.24 300.182C979.675 306.787 963.872 310.089 945.832 310.089C927.722 310.089 911.884 306.787 898.318 300.182C884.753 293.506 874.206 284.202 866.678 272.27C859.149 260.338 855.385 246.418 855.385 230.509V88.8182H901.514V226.567C901.514 234.876 903.325 242.263 906.947 248.726C910.641 255.189 915.825 260.267 922.501 263.96C929.178 267.653 936.955 269.5 945.832 269.5C954.781 269.5 962.558 267.653 969.163 263.96C975.839 260.267 980.989 255.189 984.611 248.726C988.304 242.263 990.151 234.876 990.151 226.567V88.8182ZM1065.92 126.851V88.8182H1245.11V126.851H1178.32V307H1132.72V126.851H1065.92ZM1478.82 88.8182H1524.95V230.509C1524.95 246.418 1521.15 260.338 1513.55 272.27C1506.02 284.202 1495.48 293.506 1481.91 300.182C1468.35 306.787 1452.54 310.089 1434.5 310.089C1416.39 310.089 1400.56 306.787 1386.99 300.182C1373.42 293.506 1362.88 284.202 1355.35 272.27C1347.82 260.338 1344.06 246.418 1344.06 230.509V88.8182H1390.19V226.567C1390.19 234.876 1392 242.263 1395.62 248.726C1399.31 255.189 1404.5 260.267 1411.17 263.96C1417.85 267.653 1425.63 269.5 1434.5 269.5C1443.45 269.5 1451.23 267.653 1457.84 263.96C1464.51 260.267 1469.66 255.189 1473.28 248.726C1476.98 242.263 1478.82 234.876 1478.82 226.567V88.8182ZM1681.26 151.567C1680.41 142.973 1676.75 136.297 1670.29 131.538C1663.83 126.78 1655.06 124.401 1643.98 124.401C1636.45 124.401 1630.09 125.466 1624.91 127.597C1619.72 129.656 1615.75 132.533 1612.98 136.226C1610.28 139.919 1608.93 144.109 1608.93 148.797C1608.79 152.703 1609.6 156.112 1611.38 159.024C1613.22 161.936 1615.75 164.457 1618.94 166.588C1622.14 168.648 1625.83 170.459 1630.02 172.021C1634.21 173.513 1638.69 174.791 1643.44 175.857L1663.05 180.544C1672.56 182.675 1681.3 185.516 1689.25 189.067C1697.21 192.618 1704.1 196.986 1709.92 202.17C1715.75 207.355 1720.26 213.463 1723.45 220.494C1726.72 227.526 1728.39 235.587 1728.46 244.678C1728.39 258.03 1724.98 269.607 1718.23 279.408C1711.56 289.138 1701.9 296.702 1689.25 302.099C1676.68 307.426 1661.52 310.089 1643.76 310.089C1626.15 310.089 1610.81 307.391 1597.74 301.993C1584.74 296.595 1574.59 288.605 1567.27 278.023C1560.03 267.369 1556.23 254.195 1555.87 238.499H1600.51C1601.01 245.814 1603.1 251.922 1606.8 256.822C1610.56 261.652 1615.57 265.31 1621.82 267.795C1628.14 270.21 1635.28 271.418 1643.23 271.418C1651.04 271.418 1657.83 270.281 1663.58 268.009C1669.4 265.736 1673.91 262.575 1677.11 258.527C1680.31 254.479 1681.9 249.827 1681.9 244.571C1681.9 239.67 1680.45 235.551 1677.54 232.213C1674.69 228.875 1670.5 226.034 1664.96 223.69C1659.5 221.347 1652.78 219.216 1644.83 217.298L1621.07 211.332C1602.68 206.858 1588.15 199.862 1577.5 190.345C1566.85 180.828 1561.56 168.009 1561.63 151.886C1561.56 138.676 1565.07 127.135 1572.17 117.263C1579.35 107.391 1589.18 99.6847 1601.68 94.1449C1614.18 88.6051 1628.39 85.8352 1644.3 85.8352C1660.49 85.8352 1674.62 88.6051 1686.7 94.1449C1698.84 99.6847 1708.29 107.391 1715.04 117.263C1721.78 127.135 1725.26 138.57 1725.48 151.567H1681.26Z" fill="#0E5F13"/>
</g>
<g clip-path="url(#clip3_13_2)">
<path d="M225.57 307H176.138L251.457 88.8182H310.903L386.116 307H336.685L282.033 138.676H280.328L225.57 307ZM222.48 221.24H339.241V257.249H222.48V221.24ZM412.377 307V88.8182H499.735C515.786 88.8182 529.174 91.1974 539.898 95.956C550.623 100.714 558.684 107.32 564.082 115.771C569.479 124.152 572.178 133.811 572.178 144.749C572.178 153.271 570.474 160.764 567.065 167.227C563.656 173.619 558.968 178.875 553.002 182.994C547.107 187.043 540.36 189.919 532.761 191.624V193.754C541.07 194.109 548.847 196.453 556.092 200.786C563.407 205.118 569.337 211.19 573.883 219.003C578.428 226.744 580.701 235.977 580.701 246.702C580.701 258.278 577.825 268.612 572.072 277.703C566.39 286.723 557.974 293.861 546.823 299.116C535.673 304.372 521.93 307 505.594 307H412.377ZM458.506 269.287H496.113C508.968 269.287 518.343 266.837 524.238 261.936C530.133 256.964 533.08 250.359 533.08 242.121C533.08 236.084 531.624 230.757 528.712 226.141C525.8 221.524 521.646 217.902 516.248 215.274C510.921 212.646 504.565 211.332 497.178 211.332H458.506V269.287ZM458.506 180.118H492.704C499.025 180.118 504.636 179.017 509.536 176.815C514.508 174.543 518.414 171.347 521.255 167.227C524.167 163.108 525.623 158.172 525.623 152.419C525.623 144.536 522.817 138.179 517.207 133.349C511.667 128.52 503.783 126.105 493.556 126.105H458.506V180.118ZM811.214 197.909C811.214 221.702 806.704 241.943 797.684 258.634C788.735 275.324 776.52 288.072 761.037 296.879C745.625 305.615 728.295 309.983 709.048 309.983C689.659 309.983 672.258 305.58 656.846 296.773C641.434 287.966 629.254 275.217 620.305 258.527C611.356 241.837 606.882 221.631 606.882 197.909C606.882 174.116 611.356 153.875 620.305 137.185C629.254 120.494 641.434 107.781 656.846 99.0455C672.258 90.2386 689.659 85.8352 709.048 85.8352C728.295 85.8352 745.625 90.2386 761.037 99.0455C776.52 107.781 788.735 120.494 797.684 137.185C806.704 153.875 811.214 174.116 811.214 197.909ZM764.446 197.909C764.446 182.497 762.137 169.5 757.521 158.918C752.975 148.335 746.548 140.31 738.238 134.841C729.929 129.372 720.199 126.638 709.048 126.638C697.897 126.638 688.167 129.372 679.858 134.841C671.548 140.31 665.085 148.335 660.468 158.918C655.923 169.5 653.65 182.497 653.65 197.909C653.65 213.321 655.923 226.318 660.468 236.901C665.085 247.483 671.548 255.509 679.858 260.977C688.167 266.446 697.897 269.18 709.048 269.18C720.199 269.18 729.929 266.446 738.238 260.977C746.548 255.509 752.975 247.483 757.521 236.901C762.137 226.318 764.446 213.321 764.446 197.909ZM980.151 88.8182H1026.28V230.509C1026.28 246.418 1022.48 260.338 1014.88 272.27C1007.35 284.202 996.805 293.506 983.24 300.182C969.675 306.787 953.872 310.089 935.832 310.089C917.722 310.089 901.884 306.787 888.318 300.182C874.753 293.506 864.206 284.202 856.678 272.27C849.149 260.338 845.385 246.418 845.385 230.509V88.8182H891.514V226.567C891.514 234.876 893.325 242.263 896.947 248.726C900.641 255.189 905.825 260.267 912.501 263.96C919.178 267.653 926.955 269.5 935.832 269.5C944.781 269.5 952.558 267.653 959.163 263.96C965.839 260.267 970.989 255.189 974.611 248.726C978.304 242.263 980.151 234.876 980.151 226.567V88.8182ZM1055.92 126.851V88.8182H1235.11V126.851H1168.32V307H1122.72V126.851H1055.92ZM1468.82 88.8182H1514.95V230.509C1514.95 246.418 1511.15 260.338 1503.55 272.27C1496.02 284.202 1485.48 293.506 1471.91 300.182C1458.35 306.787 1442.54 310.089 1424.5 310.089C1406.39 310.089 1390.56 306.787 1376.99 300.182C1363.42 293.506 1352.88 284.202 1345.35 272.27C1337.82 260.338 1334.06 246.418 1334.06 230.509V88.8182H1380.19V226.567C1380.19 234.876 1382 242.263 1385.62 248.726C1389.31 255.189 1394.5 260.267 1401.17 263.96C1407.85 267.653 1415.63 269.5 1424.5 269.5C1433.45 269.5 1441.23 267.653 1447.84 263.96C1454.51 260.267 1459.66 255.189 1463.28 248.726C1466.98 242.263 1468.82 234.876 1468.82 226.567V88.8182ZM1671.26 151.567C1670.41 142.973 1666.75 136.297 1660.29 131.538C1653.83 126.78 1645.06 124.401 1633.98 124.401C1626.45 124.401 1620.09 125.466 1614.91 127.597C1609.72 129.656 1605.75 132.533 1602.98 136.226C1600.28 139.919 1598.93 144.109 1598.93 148.797C1598.79 152.703 1599.6 156.112 1601.38 159.024C1603.22 161.936 1605.75 164.457 1608.94 166.588C1612.14 168.648 1615.83 170.459 1620.02 172.021C1624.21 173.513 1628.69 174.791 1633.44 175.857L1653.05 180.544C1662.56 182.675 1671.3 185.516 1679.25 189.067C1687.21 192.618 1694.1 196.986 1699.92 202.17C1705.75 207.355 1710.26 213.463 1713.45 220.494C1716.72 227.526 1718.39 235.587 1718.46 244.678C1718.39 258.03 1714.98 269.607 1708.23 279.408C1701.56 289.138 1691.9 296.702 1679.25 302.099C1666.68 307.426 1651.52 310.089 1633.76 310.089C1616.15 310.089 1600.81 307.391 1587.74 301.993C1574.74 296.595 1564.59 288.605 1557.27 278.023C1550.03 267.369 1546.23 254.195 1545.87 238.499H1590.51C1591.01 245.814 1593.1 251.922 1596.8 256.822C1600.56 261.652 1605.57 265.31 1611.82 267.795C1618.14 270.21 1625.28 271.418 1633.23 271.418C1641.04 271.418 1647.83 270.281 1653.58 268.009C1659.4 265.736 1663.91 262.575 1667.11 258.527C1670.31 254.479 1671.9 249.827 1671.9 244.571C1671.9 239.67 1670.45 235.551 1667.54 232.213C1664.69 228.875 1660.5 226.034 1654.96 223.69C1649.5 221.347 1642.78 219.216 1634.83 217.298L1611.07 211.332C1592.68 206.858 1578.15 199.862 1567.5 190.345C1556.85 180.828 1551.56 168.009 1551.63 151.886C1551.56 138.676 1555.07 127.135 1562.17 117.263C1569.35 107.391 1579.18 99.6847 1591.68 94.1449C1604.18 88.6051 1618.39 85.8352 1634.3 85.8352C1650.49 85.8352 1664.62 88.6051 1676.7 94.1449C1688.84 99.6847 1698.29 107.391 1705.04 117.263C1711.78 127.135 1715.26 138.57 1715.48 151.567H1671.26Z" fill="#0E5F13"/>
</g>
<path d="M455.034 655V620.091H462.415V634.494H477.398V620.091H484.761V655H477.398V640.58H462.415V655H455.034ZM522.926 637.545C522.926 641.352 522.205 644.591 520.761 647.261C519.33 649.932 517.375 651.972 514.898 653.381C512.432 654.778 509.659 655.477 506.58 655.477C503.477 655.477 500.693 654.773 498.227 653.364C495.761 651.955 493.813 649.915 492.381 647.244C490.949 644.574 490.233 641.341 490.233 637.545C490.233 633.739 490.949 630.5 492.381 627.83C493.813 625.159 495.761 623.125 498.227 621.727C500.693 620.318 503.477 619.614 506.58 619.614C509.659 619.614 512.432 620.318 514.898 621.727C517.375 623.125 519.33 625.159 520.761 627.83C522.205 630.5 522.926 633.739 522.926 637.545ZM515.443 637.545C515.443 635.08 515.074 633 514.335 631.307C513.608 629.614 512.58 628.33 511.25 627.455C509.92 626.58 508.364 626.142 506.58 626.142C504.795 626.142 503.239 626.58 501.909 627.455C500.58 628.33 499.545 629.614 498.807 631.307C498.08 633 497.716 635.08 497.716 637.545C497.716 640.011 498.08 642.091 498.807 643.784C499.545 645.477 500.58 646.761 501.909 647.636C503.239 648.511 504.795 648.949 506.58 648.949C508.364 648.949 509.92 648.511 511.25 647.636C512.58 646.761 513.608 645.477 514.335 643.784C515.074 642.091 515.443 640.011 515.443 637.545ZM532.732 620.091L541.169 646.614H541.493L549.947 620.091H558.129L546.095 655H536.584L524.533 620.091H532.732ZM562.331 655V620.091H585.854V626.176H569.712V634.494H584.643V640.58H569.712V648.915H585.922V655H562.331ZM591.722 655V620.091H605.494C608.131 620.091 610.381 620.562 612.244 621.506C614.119 622.437 615.545 623.761 616.523 625.477C617.511 627.182 618.006 629.187 618.006 631.494C618.006 633.812 617.506 635.807 616.506 637.477C615.506 639.136 614.057 640.409 612.159 641.295C610.273 642.182 607.989 642.625 605.307 642.625H596.085V636.693H604.114C605.523 636.693 606.693 636.5 607.625 636.114C608.557 635.727 609.25 635.148 609.705 634.375C610.17 633.602 610.403 632.642 610.403 631.494C610.403 630.335 610.17 629.358 609.705 628.562C609.25 627.767 608.551 627.165 607.608 626.756C606.676 626.335 605.5 626.125 604.08 626.125H599.102V655H591.722ZM610.574 639.114L619.25 655H611.102L602.614 639.114H610.574Z" fill="#ECBD27"/>
</g>
<path d="M446.395 631.547C429.189 629.575 380.084 624.682 375.426 590.798C373.487 576.699 376.927 556.345 384.979 546.337C402.271 524.845 436.858 547.724 412.709 574.22C399.166 589.079 376.807 580.378 361.028 573.937C337.768 564.444 324.952 542.605 313.052 516.325C307.008 502.978 289.592 433.975 292.966 435.723" stroke="#ECBD27" stroke-width="5" stroke-linecap="round"/>
<path d="M284.037 411.272C287.466 413.225 313.391 429.254 310.403 426.773C306.492 423.526 302.22 420.684 298.619 416.847C294.359 412.309 289.34 409.175 285.472 404.086C282.078 399.62 279.588 431.393 280.152 437.011" stroke="#ECBD27" stroke-width="5" stroke-linecap="round"/>
<path d="M490.566 667C489.151 684.093 484.556 732.811 509.39 740.336C519.723 743.467 535.694 741.853 544.621 734.803C563.793 719.663 552.335 683.66 528.223 705.109C514.7 717.138 517.502 739.883 519.707 755.961C522.956 779.66 537.304 794.161 555.165 808.148C564.235 815.251 613.468 838.373 612.716 834.903" stroke="#ECBD27" stroke-width="5" stroke-linecap="round"/>
<path d="M629.697 845.809C628.799 842.267 621.058 815.378 622.429 818.532C624.224 822.66 625.651 827.108 627.944 830.983C630.656 835.567 632.178 840.776 635.372 845.022C638.175 848.747 613.731 848.437 609.578 847.393" stroke="#ECBD27" stroke-width="5" stroke-linecap="round"/>
<path d="M625 630.762C644.116 638.469 697.918 661.496 737.383 616.868C753.804 598.298 771.314 567.695 773.606 548.777C778.528 508.149 720.653 519.151 717.398 570.959C715.572 600.013 746.725 601.431 769.018 602.012C801.88 602.867 837.062 580.075 875.901 550.505C895.626 535.488 983.869 449.43 978.72 449.826" stroke="#ECBD27" stroke-width="5" stroke-linecap="round"/>
<path d="M1012.73 421.011C1007.31 421.661 965.084 428.337 970.602 426.681C977.825 424.512 984.99 423.13 992.511 419.948C1001.41 416.183 1009.62 414.847 1018.69 410.072C1026.65 405.883 996.458 451.903 990.121 459.43" stroke="#ECBD27" stroke-width="5" stroke-linecap="round"/>
</g>
<defs>
<clipPath id="clip0_13_2">
<rect width="1920" height="1080" fill="white"/>
</clipPath>
<clipPath id="clip1_13_2">
<rect width="1968.16" height="1080" fill="white" transform="translate(-24)"/>
</clipPath>
<clipPath id="clip2_13_2">
<rect width="643" height="363" fill="white" transform="translate(179 16)"/>
</clipPath>
<clipPath id="clip3_13_2">
<rect width="638" height="363" fill="white" transform="translate(1235 16)"/>
</clipPath>
</defs>
</svg>
